<svg width="55" height="60" viewBox="0 0 55 60" fill="none" xmlns="http://www.w3.org/2000/svg">
<path d="M39.619 4.95154H34.6667V-0.00083971H44.5714V4.95154H49.5238V9.90392H39.619V4.95154ZM49.5238 -0.00083971H54.4762V4.95154H49.5238V-0.00083971ZM14.8571 -0.00083971H19.8095V4.95154H14.8571V-0.00083971ZM29.7143 4.95154H34.6667V9.90392H29.7143V4.95154ZM9.90475 4.95154H14.8571V9.90392H9.90475V4.95154ZM19.8095 44.5706H24.7619V34.6658H14.8571V29.7134H24.7619V24.7611H14.8571V19.8087H24.7619V9.90392H29.7143V14.8563H34.6667V44.5706H29.7143V49.523H19.8095V44.5706ZM4.95237 44.5706H-1.15335e-05V19.8087H4.95237V9.90392H9.90475V44.5706H14.8571V49.523H19.8095V54.4754H39.619V59.4277H14.8571V54.4754H4.95237V44.5706ZM39.619 14.8563H44.5714V34.6658H39.619V14.8563ZM44.5714 44.5706H49.5238V49.523H44.5714V44.5706ZM39.619 49.523H44.5714V54.4754H39.619V49.523Z" fill="white"/>
</svg>
