<svg width="288" height="90" viewBox="0 0 288 90" fill="none" xmlns="http://www.w3.org/2000/svg">
<path d="M39.619 4.95154H34.6667V-0.00083971H44.5714V4.95154H49.5238V9.90392H39.619V4.95154ZM49.5238 -0.00083971H54.4762V4.95154H49.5238V-0.00083971ZM14.8571 -0.00083971H19.8095V4.95154H14.8571V-0.00083971ZM29.7143 4.95154H34.6667V9.90392H29.7143V4.95154ZM9.90475 4.95154H14.8571V9.90392H9.90475V4.95154ZM19.8095 44.5706H24.7619V34.6658H14.8571V29.7134H24.7619V24.7611H14.8571V19.8087H24.7619V9.90392H29.7143V14.8563H34.6667V44.5706H29.7143V49.523H19.8095V44.5706ZM4.95237 44.5706H-1.15335e-05V19.8087H4.95237V9.90392H9.90475V44.5706H14.8571V49.523H19.8095V54.4754H39.619V59.4277H14.8571V54.4754H4.95237V44.5706ZM39.619 14.8563H44.5714V34.6658H39.619V14.8563ZM44.5714 44.5706H49.5238V49.523H44.5714V44.5706ZM39.619 49.523H44.5714V54.4754H39.619V49.523Z" fill="#A8A901"/>
<path d="M64.3664 49.523H69.3188V29.7134H59.4141V24.7611H64.3664V19.8087H74.2712V24.7611H84.176V19.8087H94.0807V24.7611H103.985V29.7134H99.0331V49.523H103.985V54.4754H94.0807V59.4277H89.1283V54.4754H79.2236V69.3325H74.2712V74.2849H69.3188V54.4754H64.3664V49.523ZM59.4141 54.4754H64.3664V59.4277H59.4141V54.4754ZM79.2236 49.523H89.1283V29.7134H79.2236V49.523ZM138.691 14.8563H143.643V24.7611H138.691V14.8563ZM138.691 29.7134H143.643V34.6658H138.691V29.7134ZM113.929 49.523H118.881V44.5706H113.929V29.7134H118.881V24.7611H123.834V19.8087H133.738V24.7611H138.691V29.7134H123.834V39.6182H128.786V44.5706H123.834V49.523H133.738V39.6182H128.786V34.6658H138.691V39.6182H143.643V49.523H138.691V54.4754H133.738V59.4277H123.834V54.4754H113.929V49.523ZM108.977 54.4754H113.929V59.4277H108.977V54.4754ZM153.538 -0.00083971H163.443V9.90392H153.538V-0.00083971ZM148.586 49.523H153.538V29.7134H148.586V24.7611H153.538V19.8087H163.443V24.7611H168.395V29.7134H163.443V49.523H168.395V54.4754H163.443V59.4277H153.538V54.4754H148.586V49.523ZM173.367 49.523H178.32V4.95154H183.272V-0.00083971H188.224V49.523H193.177V54.4754H188.224V59.4277H178.32V54.4754H173.367V49.523ZM198.148 49.523H203.101V29.7134H208.053V24.7611H213.006V49.523H222.91V29.7134H217.958V24.7611H213.006V19.8087H227.863V24.7611H237.767V29.7134H232.815V49.523H227.863V54.4754H217.958V59.4277H208.053V54.4754H198.148V49.523ZM247.687 49.523H252.639V29.7134H242.734V24.7611H247.687V19.8087H257.592V24.7611H267.496V19.8087H277.401V24.7611H287.306V29.7134H282.353V49.523H287.306V54.4754H282.353V59.4277H277.401V54.4754H272.449V29.7134H262.544V49.523H267.496V54.4754H262.544V59.4277H252.639V54.4754H247.687V49.523ZM175.918 84.4754H178.395V74.5706H180.871V72.0944H183.347V84.4754H188.299V72.0944H183.347V69.6182H190.775V72.0944H195.728V74.5706H193.252V84.4754H195.728V86.9515H193.252V89.4277H188.299V86.9515H185.823V89.4277H180.871V86.9515H175.918V84.4754ZM200.687 84.4754H203.164V74.5706H198.211V72.0944H200.687V69.6182H205.64V72.0944H208.116V84.4754H210.592V86.9515H208.116V89.4277H203.164V86.9515H200.687V84.4754ZM210.592 72.0944H208.116V69.6182H215.545V74.5706H210.592V72.0944ZM227.909 74.5706H225.432V72.0944H222.956V69.6182H230.385V72.0944H232.861V77.0468H227.909V74.5706ZM215.528 84.4754H218.004V74.5706H220.48V72.0944H222.956V77.0468H227.909V79.523H222.956V84.4754H227.909V86.9515H222.956V89.4277H218.004V86.9515H215.528V84.4754ZM237.809 84.4754H240.285V74.5706H235.332V72.0944H237.809V69.6182H242.761V72.0944H247.713V69.6182H252.666V72.0944H257.618V74.5706H255.142V84.4754H257.618V86.9515H255.142V89.4277H252.666V86.9515H250.19V74.5706H245.237V84.4754H247.713V86.9515H245.237V89.4277H240.285V86.9515H237.809V84.4754ZM260.114 84.4754H262.59V74.5706H265.066V72.0944H267.542V84.4754H272.495V72.0944H267.542V69.6182H274.971V72.0944H279.923V74.5706H277.447V84.4754H279.923V86.9515H277.447V89.4277H272.495V86.9515H270.018V89.4277H265.066V86.9515H260.114V84.4754ZM282.407 84.4754H287.359V89.4277H282.407V84.4754Z" fill="white"/>
</svg>
